<svg height="512" viewBox="0 0 64 64" width="512" xmlns="http://www.w3.org/2000/svg"><g id="_8-learning" data-name="8-learning"><g fill="#a57f2d"><path d="m35.473 57.052a3.949 3.949 0 0 1 .527 1.948c0 .016 0 .03-.005.045l19.039-10.384a3.969 3.969 0 0 1 -.927-1.773z"/><path d="m7 42.141v-18.282a3.977 3.977 0 0 1 -1 .141 3.977 3.977 0 0 1 -1-.141v18.282a3.977 3.977 0 0 1 1-.141 3.977 3.977 0 0 1 1 .141z"/><path d="m54.18 18.876a3.984 3.984 0 0 1 1.02-1.724l-19.207-12.081a3.963 3.963 0 0 1 -.584 2z"/></g><path d="m9.82 18.876 18.771-11.81a3.956 3.956 0 0 1 -.584-1.995l-19.029 11.972a1.018 1.018 0 0 0 -.1.054l-.081.052a3.981 3.981 0 0 1 1.023 1.727z" fill="#077774"/><path d="m28.527 57.052-18.634-10.164a3.967 3.967 0 0 1 -.926 1.773l19.038 10.384c0-.015 0-.03 0-.045a3.949 3.949 0 0 1 .522-1.948z" fill="#077774"/><path d="m57 23.859v18.282a3.617 3.617 0 0 1 2 0v-18.282a3.617 3.617 0 0 1 -2 0z" fill="#077774"/><path d="m32 9a4.022 4.022 0 0 0 3.993-3.929c0-.024.007-.047.007-.071a4 4 0 0 0 -8 0c0 .024.007.047.007.071a4.024 4.024 0 0 0 3.993 3.929z" fill="#d84c4c"/><path d="m59 42.141a3.992 3.992 0 1 0 3 3.859 3.977 3.977 0 0 0 -3-3.859z" fill="#d84c4c"/><path d="m7 23.859a3.992 3.992 0 0 0 3-3.859 3.945 3.945 0 0 0 -.18-1.124 4.03 4.03 0 1 0 -2.82 4.983z" fill="#22b573"/><path d="m10 46a4.037 4.037 0 1 0 -.107.888 3.946 3.946 0 0 0 .107-.888z" fill="#d84c4c"/><path d="m35.473 57.052a4 4 0 0 0 -7.473 1.948v.045a4 4 0 0 0 7.99 0c.01-.015.01-.029.01-.045a3.949 3.949 0 0 0 -.527-1.948z" fill="#22b573"/><path d="m54.18 18.876a3.945 3.945 0 0 0 -.18 1.124 4.234 4.234 0 1 0 .18-1.124z" fill="#22b573"/><path d="m21.9 19.3a5.091 5.091 0 0 1 4.96-4.3c4.28 0 5.14 2.79 5.14 5.1v23.8c0 2.31-.86 5.1-5.14 5.1a5.091 5.091 0 0 1 -4.96-4.3 6.777 6.777 0 0 1 -5.33-3.35 6.287 6.287 0 0 1 -.45-4.94 4.762 4.762 0 0 1 -2.12-4.41 4.762 4.762 0 0 1 2.12-4.41 6.287 6.287 0 0 1 .45-4.94 6.777 6.777 0 0 1 5.33-3.35z" fill="#f9df70"/><path d="m47.88 36.41a6.287 6.287 0 0 1 -.45 4.94 6.777 6.777 0 0 1 -5.33 3.35 5.091 5.091 0 0 1 -4.96 4.3c-4.28 0-5.14-2.79-5.14-5.1v-23.8c0-2.31.86-5.1 5.14-5.1a5.091 5.091 0 0 1 4.96 4.3 6.777 6.777 0 0 1 5.33 3.35 6.287 6.287 0 0 1 .45 4.94 4.762 4.762 0 0 1 2.12 4.41 4.762 4.762 0 0 1 -2.12 4.41z" fill="#0cbdc6"/><path d="m20.56 36a1 1 0 0 0 .992 1h.008a1 1 0 0 0 1-.989 3.368 3.368 0 0 1 2.316-3.058 1 1 0 0 0 0-1.9 3.367 3.367 0 0 1 -2.316-3.057 1 1 0 0 0 -2 .006 5.452 5.452 0 0 0 1.94 3.998 5.452 5.452 0 0 0 -1.94 4z" fill="#a57f2d"/><path d="m33 36.946a6.858 6.858 0 0 1 -2-4.946 5.537 5.537 0 0 1 -3.62 5.006 1 1 0 1 0 .66 1.888 8.478 8.478 0 0 0 2.96-1.948v6.954c0 2.8-1.315 4.1-4.14 4.1a4.079 4.079 0 0 1 -3.984-3.515 5.929 5.929 0 0 1 -.166-1.435 5.185 5.185 0 0 1 1.063-3.386 1 1 0 1 0 -1.546-1.264 7.146 7.146 0 0 0 -1.517 4.65c0 .131.016.254.021.382a5.162 5.162 0 0 1 -3.269-2.532 5.493 5.493 0 0 1 -.624-3.073 5.6 5.6 0 0 0 1.424.275h.029a1 1 0 0 0 .034-2 3.931 3.931 0 0 1 -1.682-.543 3.85 3.85 0 0 1 -1.643-3.559 3.85 3.85 0 0 1 1.641-3.557 3.948 3.948 0 0 1 1.683-.544 1 1 0 0 0 .966-1.027.989.989 0 0 0 -1.028-.972 5.6 5.6 0 0 0 -1.424.275 5.5 5.5 0 0 1 .623-3.072 5.165 5.165 0 0 1 3.27-2.535c-.005.128-.021.251-.021.382a7.146 7.146 0 0 0 1.517 4.65 1 1 0 0 0 1.546-1.268 5.185 5.185 0 0 1 -1.063-3.382 5.929 5.929 0 0 1 .166-1.435 4.079 4.079 0 0 1 3.984-3.515c2.825 0 4.14 1.3 4.14 4.1a6.652 6.652 0 0 1 1-3.742 5.794 5.794 0 0 0 -5.14-2.358 5.957 5.957 0 0 0 -5.737 4.411 7.44 7.44 0 0 0 -5.445 3.789 7.3 7.3 0 0 0 -.7 4.994 5.892 5.892 0 0 0 -1.978 4.806 5.9 5.9 0 0 0 1.979 4.808 7.3 7.3 0 0 0 .7 4.995 7.441 7.441 0 0 0 5.445 3.786 5.957 5.957 0 0 0 5.736 4.411 5.794 5.794 0 0 0 5.14-2.358 6.652 6.652 0 0 0 1-3.742z" fill="#a57f2d"/><path d="m26.766 25.72a1 1 0 0 0 .614 1.274c.036.012 3.62 1.306 3.62 5.006v-4.946a8.478 8.478 0 0 0 -2.96-1.948 1 1 0 0 0 -1.274.614z" fill="#a57f2d"/><path d="m51 32a5.9 5.9 0 0 0 -1.979-4.808 7.3 7.3 0 0 0 -.7-5 7.442 7.442 0 0 0 -5.447-3.786 5.958 5.958 0 0 0 -5.734-4.406 5.794 5.794 0 0 0 -5.14 2.358 6.652 6.652 0 0 0 -1 3.742v11.9a6.858 6.858 0 0 0 2 4.946 8.478 8.478 0 0 0 2.96 1.948 1 1 0 1 0 .66-1.888c-.036-.012-3.62-1.306-3.62-5.006a5.537 5.537 0 0 1 3.62-5.006 1 1 0 1 0 -.66-1.888 8.478 8.478 0 0 0 -2.96 1.948v-6.954c0-2.8 1.315-4.1 4.14-4.1a4.09 4.09 0 0 1 3.99 3.542 5.849 5.849 0 0 1 .16 1.408 5.185 5.185 0 0 1 -1.063 3.386 1 1 0 0 0 1.546 1.264 7.146 7.146 0 0 0 1.517-4.65c0-.131-.016-.253-.021-.382a5.162 5.162 0 0 1 3.269 2.532 5.493 5.493 0 0 1 .624 3.073 5.6 5.6 0 0 0 -1.424-.275 1 1 0 0 0 -.063 2 3.931 3.931 0 0 1 1.682.543 3.85 3.85 0 0 1 1.643 3.559 3.85 3.85 0 0 1 -1.641 3.557 3.948 3.948 0 0 1 -1.683.544 1 1 0 0 0 .033 2h.029a5.6 5.6 0 0 0 1.424-.275 5.5 5.5 0 0 1 -.623 3.072 5.165 5.165 0 0 1 -3.27 2.535c.005-.129.021-.251.021-.382a7.146 7.146 0 0 0 -1.517-4.651 1 1 0 1 0 -1.546 1.268 5.185 5.185 0 0 1 1.063 3.382 5.849 5.849 0 0 1 -.16 1.408 4.09 4.09 0 0 1 -3.99 3.542c-2.825 0-4.14-1.3-4.14-4.1a6.652 6.652 0 0 1 -1 3.742 5.794 5.794 0 0 0 5.14 2.358 5.958 5.958 0 0 0 5.735-4.411 7.439 7.439 0 0 0 5.447-3.789 7.3 7.3 0 0 0 .7-4.994 5.892 5.892 0 0 0 1.978-4.806z" fill="#077774"/><path d="m42.44 37a1 1 0 0 0 1-1 5.452 5.452 0 0 0 -1.94-4 5.452 5.452 0 0 0 1.943-4 1 1 0 0 0 -.992-1h-.011a1 1 0 0 0 -1 .989 3.368 3.368 0 0 1 -2.316 3.058 1 1 0 0 0 0 1.9 3.367 3.367 0 0 1 2.316 3.057 1 1 0 0 0 1 .996z" fill="#077774"/><path d="m32 1a4 4 0 0 1 0 8z" fill="#a23939"/><path d="m58 42a4 4 0 0 1 0 8z" fill="#a23939"/><path d="m6 16a4 4 0 0 1 0 8z" fill="#1a8856"/><path d="m6 42a4 4 0 0 1 0 8z" fill="#a23939"/><path d="m32 55a4 4 0 0 1 0 8z" fill="#1a8856"/><path d="m58 16a4 4 0 0 1 0 8z" fill="#1a8856"/></g></svg>